<svg width="128" height="128" viewBox="0 0 128 128" xmlns="http://www.w3.org/2000/svg">
  <circle cx="64" cy="64" r="60" fill="#10b981"/>
  <circle cx="45" cy="50" r="8" fill="white"/>
  <path d="M45 60C38 60 32 66 32 73V84H58V73C58 66 52 60 45 60Z" fill="white"/>
  <circle cx="83" cy="50" r="8" fill="white"/>
  <path d="M83 60C76 60 70 66 70 73V84H96V73C96 66 90 60 83 60Z" fill="white"/>
  <circle cx="64" cy="42" r="6" fill="white"/>
  <path d="M64 52C59 52 55 56 55 61V70H73V61C73 56 69 52 64 52Z" fill="white"/>
</svg>