<svg width="128" height="128" viewBox="0 0 128 128" xmlns="http://www.w3.org/2000/svg">
  <circle cx="64" cy="64" r="60" fill="#dc2626"/>
  <path d="M64 30C58 30 52 36 52 42C52 46 54 50 57 52V62C57 68 60 72 64 72C68 72 71 68 71 62V52C74 50 76 46 76 42C76 36 70 30 64 30Z" fill="white"/>
  <path d="M64 72C50 72 38 82 38 96V98H90V96C90 82 78 72 64 72Z" fill="white"/>
  <path d="M64 48C66 48 68 46 68 44C68 42 66 40 64 40C62 40 60 42 60 44C60 46 62 48 64 48Z" fill="#dc2626"/>
  <path d="M44 84L50 78L58 86L70 74L78 82L84 76" stroke="white" stroke-width="4" stroke-linecap="round" stroke-linejoin="round" fill="none"/>
</svg>